<?xml version="1.0" encoding="UTF-8"?>
<svg id="Capa_1" xmlns="http://www.w3.org/2000/svg" version="1.1" viewBox="0 0 397.7 397.7">
  <!-- Generator: Adobe Illustrator 29.3.1, SVG Export Plug-In . SVG Version: 2.1.0 Build 151)  -->
  <defs>
    <style>
      .st0 {
        fill: #d3932d;
      }

      .st1 {
        fill: #fff;
      }

      .st2 {
        fill: #4c4f45;
      }
    </style>
  </defs>
  <g>
    <path class="st2" d="M188,283.8c-2.9,0-5.8-.4-8.7-1.2-8.6-2.3-15.7-7.8-20.2-15.5-4.4-7.7-5.6-16.7-3.3-25.2.9-3.5,2.4-6.8,4.3-9.7-3.5.2-7.1-.2-10.6-1.1-8.6-2.3-15.7-7.8-20.2-15.5l-.2-.4c-6.4-11.1-10.4-23.4-11.9-36.1-14.6-12.4-21.4-31.7-17.4-50.8.5-2.2,1.4-4.1,2.7-5.8-8.7-13.5-11.1-30.9-4.9-47,1.4-3.7,4.2-6.5,7.6-7.9-7.6-15.2-7.6-33.7,1.5-49.5,3.9-6.8,12.6-9.1,19.3-5.2l9.1,5.3h0l121.1,69.8c14.2,8.2,26.1,20,34.3,34.3,12.3,21.3,15.6,47.1,9.2,70.7-6.3,23.7-22.2,44.3-43.5,56.5l-52,29.9c-5.1,2.9-10.8,4.4-16.5,4.4h.3ZM209.9,141.9c-4.6,0-9.1,1.2-13.2,3.6-6.2,3.6-10.6,9.2-12.5,16.2s-.9,14,2.7,20.2l.3.5c4.4,7.6,5.6,16.6,3.3,25.2-.4,1.3-.8,2.6-1.3,3.9l34.2-19.7c6.2-3.6,10.6-9.2,12.5-16.2s.9-14-2.7-20.2c-2.5-4.3-5.8-7.7-9.4-9.6-1.9-1-5.1-2.4-6.8-2.9-2.3-.6-4.7-.9-7-.9h-.1Z"/>
    <path class="st1" d="M280.6,128c-7.4-12.9-17.9-23-29.9-29.9L120.3,23.1h0c-1.1-.7-2.6-.3-3.3.9-11.2,19.4-4.5,44.2,14.9,55.4l34.6,19.9-54.8-20.9h0c-1.2-.5-2.6,0-3.1,1.4h0c-8,20.9,2.5,44.4,23.4,52.4l3.3,1.3-21.2-4.5c-1.3-.3-2.6.6-2.8,1.8h0c-3.5,16.7,3.8,33.2,17.2,42.1.6,12.4,4.1,24.9,10.8,36.4l.2.4c5.9,10.3,19,13.8,29.3,7.9,10.3-5.9,13.8-19,7.9-29.3l-.2-.4c-5.3-9.3-6.4-19.6-3.8-29.2,2.6-9.6,8.7-18,18-23.3s19.6-6.4,29.2-3.8c2.9.8,7,2.7,9.2,3.8,5.8,3.1,10.6,8,14.1,14.1,5.3,9.3,6.4,19.6,3.8,29.2-2.6,9.6-8.7,18-18,23.3l-52,29.9c-10.3,5.9-13.8,19-7.9,29.3,5.9,10.3,19,13.8,29.3,7.9l52-29.9c19.4-11.2,32.6-29.3,38-49.4,5.4-20,3.1-42.4-8.1-61.8h.3Z"/>
    <path class="st0" d="M179.7,199c0,11.9-9.6,21.5-21.5,21.5s-21.5-9.6-21.5-21.5,9.6-21.5,21.5-21.5,21.5,9.6,21.5,21.5Z"/>
    <path class="st0" d="M198.7,269.2l52-29.9c10.3-5.9,13.8-19,7.9-29.3h0c-5.9-10.3-19-13.8-29.3-7.9h0l-52,29.9c-10.3,5.9-13.8,19-7.9,29.3h0c5.9,10.3,19,13.8,29.3,7.9h0Z"/>
  </g>
  <g>
    <path class="st1" d="M37.5,325.2c4,0,7.2,3.2,7.2,7.2s-3.2,7.2-7.2,7.2-7.2-3.2-7.2-7.2,3.2-7.2,7.2-7.2ZM31.2,343.3h12.7v27.9c0,3.2.8,4.5,2.9,4.5s1.3,0,1.5-.2v10.8c-1.1.4-3.1.7-5.9.7-7.5,0-11.3-4-11.3-12.1v-31.6h0Z"/>
    <path class="st1" d="M56.8,349c4.1-4.3,9.2-6.5,15.3-6.5s11.5,2.6,12.8,6.4v-22.1h12.7v44.3c0,3.4.9,4.8,3.2,4.8s1.4,0,2.1-.2v10.6c-1.4.4-3.2.7-5.7.7s-5.2-.5-7-1.5c-2-1.3-3.2-2.8-3.8-4.6-2.8,4.2-7.5,6.2-14.2,6.2s-11.2-2.1-15.3-6.4c-4-4.3-6.1-9.6-6.1-15.9s2-11.5,6.1-15.8h0ZM82.3,372.4c2.2-2.1,3.3-4.7,3.3-7.7s-1.1-5.5-3.3-7.6c-2.1-2.1-4.8-3.2-7.9-3.2s-5.6,1-7.8,3.2c-2.1,2-3.2,4.6-3.2,7.6s1,5.5,3.2,7.7c2.1,2,4.7,3.1,7.8,3.1s5.8-1,7.9-3.1Z"/>
    <path class="st1" d="M110.2,375.3c2.8-2.7,7.1-2.7,9.8,0,2.8,2.7,2.8,7,0,9.7-2.7,2.7-7,2.7-9.8,0-2.7-2.7-2.7-7,0-9.7Z"/>
    <path class="st1" d="M131,349c4.1-4.3,9.2-6.5,15.3-6.5s11.5,2.6,12.8,6.4v-5.6h12.7v27.9c0,3.4.9,4.8,3.2,4.8s1.4,0,2.1-.2v10.6c-1.4.4-3.2.7-5.7.7s-5.2-.5-7-1.5c-2-1.3-3.2-2.8-3.8-4.6-2.8,4.2-7.5,6.2-14.2,6.2s-11.2-2.1-15.3-6.4c-4-4.3-6.1-9.6-6.1-15.9s2-11.5,6.1-15.8h-.1ZM156.5,372.4c2.2-2.1,3.3-4.7,3.3-7.7s-1.1-5.5-3.3-7.6c-2.1-2.1-4.8-3.2-7.9-3.2s-5.6,1-7.8,3.2c-2.1,2-3.2,4.6-3.2,7.6s1,5.5,3.2,7.7c2.1,2,4.7,3.1,7.8,3.1s5.8-1,7.9-3.1Z"/>
    <path class="st0" d="M218.4,326.8h4.3v48.3c0,5.7,2,8.2,6.4,8.2s2.6,0,3.6-.3v3.9c-1.3.3-2.5.4-3.6.4-7.1,0-10.7-4-10.7-11.9v-48.6Z"/>
    <path class="st0" d="M237.9,333.9c-1.1-1.1-1.1-3.2,0-4.3,2.7-3.1,7.3,1.7,4.3,4.3-1.1,1.1-3.1,1.1-4.3,0ZM238,343.3h4.3v35.2c0,3.3.9,4.7,3.5,4.7s1.6,0,2.4-.2v3.6c-.9.3-2,.5-3.5.5-4.4,0-6.6-2.6-6.6-7.8v-36h0Z"/>
    <path class="st0" d="M253.6,326.8h4.3v25.4c.9-2.8,3-5.1,6.1-7.1,3.2-2,6.8-3,11-3,6.1,0,11.2,2.1,15.3,6.5,4.2,4.3,6.3,9.7,6.3,16.1s-2.1,11.8-6.3,16.1c-4.2,4.3-9.3,6.5-15.3,6.5s-7.8-.9-11-2.9c-3.1-2-5.1-4.3-6.1-7.2v8.9h-4.3v-59.4h0ZM287.2,378.1c3.3-3.6,5-8,5-13.3s-1.7-9.6-5-13.2-7.4-5.4-12.4-5.4-9.2,1.8-12.5,5.3-5,7.9-5,13.3,1.7,9.9,5,13.4,7.5,5.2,12.5,5.2,9-1.8,12.4-5.3Z"/>
    <path class="st0" d="M324.9,342.7v4.4c-.7,0-1.6-.2-2.7-.2-4.5,0-7.9,1.5-10.3,4.5s-3.6,6.7-3.6,11.3v23.5h-4.3v-43h4.3v8.6c2.1-6.2,7-9.3,14.6-9.3s1.6,0,2,0v.2Z"/>
    <path class="st0" d="M326.4,364.9c0-6.6,2-12.1,6-16.3,4-4.3,9-6.4,15-6.4s10.5,2,14.2,6.2c3.8,4.2,5.7,9.2,5.7,15.3s0,1.5,0,2.1h-36.7c0,5.2,1.7,9.4,4.9,12.6,3.2,3.2,7.2,4.9,12.1,4.9s10.1-2,14.1-6.2l2.8,2.7c-4.3,5-10,7.5-16.9,7.5s-11.3-2-15.3-6.1c-3.9-4.2-5.9-9.5-5.9-16v-.3h0ZM362.9,362c0-4.3-1.6-8.1-4.6-11.2s-6.6-4.6-10.9-4.6-8.4,1.5-11.6,4.6c-3.2,3-4.9,6.7-5,11.2h32.1Z"/>
  </g>
</svg>