<?xml version="1.0" encoding="utf-8"?>
<!-- Generator: Adobe Illustrator 23.0.4, SVG Export Plug-In . SVG Version: 6.00 Build 0)  -->
<svg version="1.1" id="Capa_1" xmlns="http://www.w3.org/2000/svg" xmlns:xlink="http://www.w3.org/1999/xlink" x="0px" y="0px"
	 viewBox="0 0 74 81.4" style="enable-background:new 0 0 74 81.4;" xml:space="preserve">
<style type="text/css">
	.st0{fill:url(#SVGID_1_);}
	.st1{fill:#F5F9FA;}
	.st2{fill:#F5F6F7;}
	.st3{fill:#050506;}
	.st4{fill:#F8F9FA;}
</style>
<g>
	
		<linearGradient id="SVGID_1_" gradientUnits="userSpaceOnUse" x1="17.3861" y1="76.0055" x2="62.3841" y2="8.0016" gradientTransform="matrix(1 0 0 -1 0 84)">
		<stop  offset="0" style="stop-color:#FFCC00"/>
		<stop  offset="1" style="stop-color:#FF8800"/>
	</linearGradient>
	<path class="st0" d="M74,37C74,16.6,57.4,0,37,0S0,16.6,0,37c0,6.4,1.6,12.5,4.5,17.7C6,57.8,8,61.3,10.4,65.1
		c6.8,10.3,15.7,23.8,21.4,10.6c0.2-0.5,0.3-1.2,0.3-2c1.6,0.2,3.3,0.3,4.9,0.3c2.9,0,5.8-0.4,8.5-1c0.2,2,1.3,4.2,3.6,6.9
		c4.7,5.6,10.5-5.9,16.2-16.4c1.6-3,3-6,4.1-8.7C72.3,49.6,74,43.5,74,37z"/>
	<g id="XMLID_1_">
		<g>
			<path class="st1" d="M38.4,39.6c2.4-0.2,4.5-1.6,5.9-1.9c0.2,0.4,0.3,0.9,0.3,1.4c0,2-1.6,3.6-3.6,3.6c-1.3,0-2.4-0.7-3-1.7
				C38.1,40.6,38.3,40.1,38.4,39.6z"/>
			<path class="st2" d="M38.4,39.6c-0.1,0.5-0.2,1-0.5,1.4c-0.2-0.4-0.4-0.8-0.5-1.3c0.1,0,0.1,0,0.2,0
				C37.8,39.7,38.1,39.7,38.4,39.6z"/>
			<path class="st1" d="M31.5,37.9c1.5,0.5,3.6,1.7,5.9,1.7c0.1,0.5,0.2,0.9,0.5,1.3c-0.6,1-1.7,1.7-3,1.7c-2,0-3.6-1.6-3.6-3.6
				C31.3,38.7,31.3,38.3,31.5,37.9z"/>
			<path class="st3" d="M34.8,42.7c1.3,0,2.4-0.7,3-1.7c0.6,1,1.7,1.7,3,1.7c2,0,3.6-1.6,3.6-3.6c0-0.5-0.1-1-0.3-1.4
				c1-0.2,1.7,0.1,1.7,1.9c0,4.4-3.7,8.1-8.3,8.1s-8.3-3.6-8.3-8.1c0-2.1,0.8-2.2,2.2-1.7c-0.1,0.4-0.2,0.8-0.2,1.2
				C31.3,41.1,32.9,42.7,34.8,42.7z"/>
		</g>
	</g>
	<circle class="st3" cx="23.7" cy="29.2" r="3"/>
	<circle class="st3" cx="50.1" cy="29.2" r="3"/>
	<circle class="st4" cx="22.7" cy="27.7" r="1"/>
	<circle class="st4" cx="49.1" cy="27.7" r="1"/>
</g>
</svg>
