<?xml version="1.0" encoding="utf-8"?>
<!-- Generator: Adobe Illustrator 24.2.3, SVG Export Plug-In . SVG Version: 6.00 Build 0)  -->
<svg version="1.1" id="Capa_1" xmlns="http://www.w3.org/2000/svg" xmlns:xlink="http://www.w3.org/1999/xlink" x="0px" y="0px"
	 viewBox="208.6 0 590.9 612" style="enable-background:new 208.6 0 590.9 612;" xml:space="preserve">
<style type="text/css">
	.st0{fill:#F9BF0F;}
</style>
<path class="st0" d="M790.4,557.4L644.8,405.9c37.5-44.5,58-100.5,58-158.8C702.8,110.8,591.9,0,455.7,0S208.6,110.8,208.6,247.1
	s110.8,247.1,247.1,247.1c51.1,0,99.9-15.4,141.6-44.7L744,602.1c6.1,6.4,14.4,9.9,23.2,9.9c8.4,0,16.3-3.2,22.3-9
	C802.4,590.7,802.8,570.3,790.4,557.4z M455.7,64.5c100.7,0,182.6,81.9,182.6,182.6s-81.9,182.6-182.6,182.6S273,347.8,273,247.1
	S355,64.5,455.7,64.5z"/>
</svg>
