<?xml version="1.0" encoding="utf-8"?>
<!-- Generator: Adobe Illustrator 24.2.1, SVG Export Plug-In . SVG Version: 6.00 Build 0)  -->
<svg version="1.1" id="Layer_2" xmlns="http://www.w3.org/2000/svg" xmlns:xlink="http://www.w3.org/1999/xlink" x="0px" y="0px"
	 viewBox="0 0 621.4 612" style="enable-background:new 0 0 621.4 612;" xml:space="preserve">
<style type="text/css">
	.st0{fill:#FFFFFF;}
</style>
<g>
	<ellipse class="st0" cx="275" cy="182" rx="26.3" ry="28.2"/>
	<path class="st0" d="M178.8,165c0,0,1.4,72.5,45.9,71.8c0,0,35.4,7.4,95.6-41.7c0,0,110.3-86.8,118.3-102.6
		c0,0-80.9,126-87.2,137.9c0,0,7.4,0.7,34,1.4c0,0,125.7-3.9,97.7,92.1c0,0-13.7,32.2-27.7,51.8c0,0-15.4-79.8-39.6-97
		c0,0-30.5-34-100.5,37.1c0,0-77.3,93.7-86.2,110.5c0,0-66.7,98.7-70.3,102.4c0,0,43-74,57.2-111.3c0,0,54.6-108.9,67.9-139.3
		c0,0-87.9,22.1-109.6-57.8C174.2,220.3,167.9,196.2,178.8,165z"/>
	<polygon class="st0" points="176,392.9 201.5,415.6 264.5,307.8 	"/>
	<path class="st0" d="M272.9,393.9"/>
	<polygon class="st0" points="272.9,393.9 315.6,393.9 335.9,324.6 	"/>
	<path class="st0" d="M310.7,37.2c36.3,0,71.6,7.1,104.8,21.1c32.1,13.5,60.8,32.9,85.6,57.6c24.7,24.7,44.1,53.4,57.7,85.5
		c14,33.1,21.1,68.3,21.1,104.6s-7.1,71.5-21.1,104.6c-13.6,32-33,60.8-57.7,85.5c-24.7,24.7-53.5,44.1-85.6,57.6
		c-33.2,14-68.4,21.1-104.8,21.1c-36.3,0-71.6-7.1-104.8-21.1c-32.1-13.5-60.8-32.9-85.6-57.6c-24.7-24.7-44.1-53.4-57.7-85.5
		c-14-33.1-21.1-68.3-21.1-104.6s7.1-71.5,21.1-104.6c13.6-32,33-60.8,57.7-85.5c24.7-24.7,53.5-44.1,85.6-57.6
		C239.1,44.3,274.3,37.2,310.7,37.2 M310.7,22.5C153.9,22.5,26.8,149.4,26.8,306s127.1,283.5,283.9,283.5S594.6,462.6,594.6,306
		S467.5,22.5,310.7,22.5L310.7,22.5z"/>
</g>
</svg>
